<svg  viewBox="0 0 24 24" fill="none" xmlns="http://www.w3.org/2000/svg">
<path d="M20 6.00005H10.9467L9.40666 3.88005C9.28254 3.71018 9.11998 3.5721 8.93227 3.47709C8.74457 3.38208 8.53705 3.33283 8.32666 3.33338H4C3.64638 3.33338 3.30724 3.47385 3.05719 3.7239C2.80714 3.97395 2.66666 4.31309 2.66666 4.66671V19.3334C2.66666 19.687 2.80714 20.0261 3.05719 20.2762C3.30724 20.5262 3.64638 20.6667 4 20.6667H20C20.3536 20.6667 20.6928 20.5262 20.9428 20.2762C21.1929 20.0261 21.3333 19.687 21.3333 19.3334V7.33338C21.3333 6.97976 21.1929 6.64062 20.9428 6.39057C20.6928 6.14052 20.3536 6.00005 20 6.00005ZM4 7.33338V4.66671H8.32666L10.14 7.33338H4Z" fill="#AB904E"/>
</svg>
