<svg  viewBox="0 0 22 18" fill="none" xmlns="http://www.w3.org/2000/svg">
<path d="M21.5467 6.16C21.4393 6.00391 21.2946 5.87706 21.1258 5.79092C20.957 5.70479 20.7695 5.66208 20.58 5.66667H5.44669C5.12737 5.6802 4.81808 5.7821 4.55325 5.96101C4.28842 6.13992 4.07844 6.38882 3.94669 6.68C3.94451 6.71107 3.94451 6.74226 3.94669 6.77333L2.00002 13.6667V1.66667H6.32669L8.06669 4.06C8.12875 4.14493 8.21003 4.21397 8.30388 4.26148C8.39773 4.30898 8.5015 4.33361 8.60669 4.33333H19.3334C19.3334 3.97971 19.1929 3.64057 18.9428 3.39052C18.6928 3.14048 18.3536 3 18 3H8.94669L7.40669 0.88C7.28256 0.710136 7.12 0.572055 6.9323 0.477044C6.74459 0.382032 6.53707 0.332787 6.32669 0.333333H2.00002C1.6464 0.333333 1.30726 0.473808 1.05721 0.723857C0.807163 0.973906 0.666687 1.31304 0.666687 1.66667V16.7933C0.677095 17.0332 0.781572 17.2594 0.957501 17.4229C1.13343 17.5863 1.36666 17.6739 1.60669 17.6667H18.2267C18.3755 17.6726 18.5219 17.6285 18.6427 17.5415C18.7636 17.4546 18.8518 17.3296 18.8934 17.1867L21.6867 7.12C21.7388 6.96 21.7533 6.79013 21.729 6.62362C21.7047 6.45711 21.6423 6.29845 21.5467 6.16Z" fill="#AB904E"/>
</svg>
