<svg viewBox="0 0 24 24" fill="none" xmlns="http://www.w3.org/2000/svg">
<path d="M20.4801 4.70467L18.935 22.0139L11.9896 23.9394L5.06341 22.0166L3.5199 4.70467H20.4801Z" fill="#E44D26"/>
<path d="M12 22.4676L17.6122 20.9117L18.9325 6.12013H12V22.4676Z" fill="#F16529"/>
<path d="M8.99632 10.3667H12V8.24344H6.6759L6.7267 8.81306L7.24858 14.6641H12V12.5409H9.19039L8.99632 10.3667ZM9.47486 15.7258H7.34345L7.64089 19.0596L11.9902 20.2669L12 20.2642V18.0552L11.9907 18.0576L9.62604 17.4192L9.47486 15.7258Z" fill="#EBEBEB"/>
<path d="M5.09784 0H6.17684V1.06604H7.1639V0H8.24297V3.22823H7.16397V2.14724H6.17691V3.22823H5.09791V0H5.09784ZM9.66183 1.07056H8.71207V0H11.6914V1.07056H10.741V3.22823H9.66203V1.07056H9.66196H9.66183ZM12.1642 0H13.2893L13.9814 1.13432L14.6728 0H15.7983V3.22823H14.7237V1.62814L13.9814 2.77596H13.9627L13.2199 1.62814V3.22823H12.1642V0ZM16.3353 0H17.4146V2.1612H18.932V3.22823H16.3352V0H16.3353Z" fill="black"/>
<path d="M11.9927 14.6641H14.6072L14.3607 17.4178L11.9926 18.057V20.2659L16.3454 19.0596L16.3773 18.7009L16.8763 13.1111L16.9281 12.5409H11.9927V14.6641ZM11.9927 10.3615V10.3667H17.1213L17.1639 9.88947L17.2606 8.81306L17.3114 8.24344H11.9927V10.3616V10.3615Z" fill="#F9F9F9"/>
</svg>
