<svg viewBox="0 0 24 24" fill="none" xmlns="http://www.w3.org/2000/svg">
<g clip-path="url(#clip0_102_233)">
<path d="M17.8118 22.5037C17.7225 22.551 17.73 22.566 17.8155 22.5225C17.8433 22.5112 17.8665 22.4955 17.8868 22.4767C17.8868 22.461 17.8868 22.461 17.8118 22.5037ZM17.9918 22.4062C17.949 22.4415 17.949 22.4415 18 22.4182C18.027 22.4025 18.051 22.3875 18.051 22.383C18.051 22.3627 18.039 22.3672 17.9918 22.4062ZM18.1087 22.3357C18.066 22.371 18.066 22.371 18.117 22.3478C18.1448 22.332 18.168 22.3155 18.168 22.3118C18.168 22.293 18.156 22.2967 18.1087 22.3357ZM18.2272 22.266C18.1845 22.3012 18.1845 22.3012 18.234 22.2772C18.2617 22.2622 18.285 22.2465 18.285 22.242C18.285 22.2232 18.273 22.227 18.2272 22.266ZM18.387 22.1603C18.3053 22.215 18.2768 22.2502 18.3517 22.2112C18.402 22.1805 18.4875 22.113 18.4725 22.113C18.4402 22.125 18.4132 22.1453 18.3862 22.1603H18.387ZM11.2148 0.00824998C11.16 0.012 10.9957 0.027 10.8517 0.039C7.44075 0.348 4.2495 2.184 2.22675 5.01225C1.1085 6.5625 0.3825 8.36325 0.10875 10.254C0.012 10.914 0 11.109 0 12.0037C0 12.8977 0.012 13.0897 0.10875 13.7497C0.762 18.258 3.969 22.0425 8.316 23.445C9.09825 23.6948 9.918 23.8673 10.8517 23.973C11.2148 24.012 12.7845 24.012 13.1475 23.973C14.7615 23.793 16.1243 23.3947 17.4728 22.707C17.6798 22.602 17.7188 22.5742 17.691 22.551C17.031 21.6803 16.383 20.8087 15.7343 19.9297L13.8165 17.34L11.4142 13.7812C10.6132 12.5902 9.80925 11.4022 8.9925 10.2232C8.98425 10.2232 8.97375 11.805 8.96925 13.734C8.961 17.1127 8.961 17.25 8.91825 17.328C8.8755 17.4217 8.805 17.4998 8.71125 17.5432C8.637 17.5785 8.57025 17.586 8.2155 17.586H7.80975L7.704 17.52C7.638 17.4772 7.58325 17.418 7.548 17.3482L7.497 17.2425L7.50075 12.5392L7.509 7.836L7.58325 7.74225C7.6305 7.6845 7.689 7.63725 7.755 7.602C7.85325 7.55475 7.89225 7.54725 8.298 7.54725C8.77425 7.54725 8.853 7.566 8.97825 7.70325C9.95025 9.15225 10.9192 10.605 11.8725 12.0622C13.4318 14.4262 15.5603 17.652 16.6065 19.2345L18.5093 22.1137L18.603 22.0515C19.5173 21.4417 20.349 20.7158 21.0667 19.8877C22.5788 18.1568 23.5598 16.0275 23.892 13.755C23.9888 13.095 24.0007 12.8992 24.0007 12.0052C24.0007 11.1105 23.9888 10.9192 23.892 10.2593C23.2388 5.751 20.0317 1.9665 15.6847 0.56325C14.8717 0.306 14.0355 0.1305 13.1887 0.0405C12.9615 0.01725 11.4105 -0.0105 11.2155 0.00974998L11.2148 0.00824998ZM16.125 7.266C16.2383 7.32 16.3237 7.422 16.3627 7.539C16.383 7.602 16.3867 8.90625 16.383 11.844L16.3748 16.062L15.633 14.922L14.8868 13.7812V10.719C14.8868 8.73375 14.895 7.62075 14.9055 7.566C14.9408 7.44075 15.0262 7.33575 15.1403 7.26975C15.2333 7.2225 15.2692 7.21875 15.6405 7.21875C15.9878 7.21875 16.0463 7.2225 16.1243 7.266H16.125Z" fill="black"/>
</g>
<defs>
<clipPath id="clip0_102_233">
<rect width="24" height="24" fill="white"/>
</clipPath>
</defs>
</svg>
