<svg  viewBox="0 0 24 23" fill="none" xmlns="http://www.w3.org/2000/svg">
<path d="M11.9792 15.6544C18.0648 15.6544 22.9983 13.7944 22.9983 11.5C22.9983 9.2056 18.0648 7.34562 11.9792 7.34562C5.89345 7.34562 0.960022 9.2056 0.960022 11.5C0.960022 13.7944 5.89345 15.6544 11.9792 15.6544Z" stroke="#61DAFB"/>
<path d="M8.33552 13.5772C11.3784 18.7813 15.4764 22.07 17.4887 20.9228C19.501 19.7756 18.6656 14.6269 15.6228 9.42281C12.5799 4.21874 8.48191 0.92999 6.46959 2.07719C4.45727 3.22439 5.29267 8.37312 8.33552 13.5772Z" stroke="#61DAFB"/>
<path d="M8.33549 9.42281C5.29264 14.6269 4.45724 19.7756 6.46956 20.9228C8.48188 22.07 12.5799 18.7813 15.6228 13.5772C18.6656 8.37312 19.501 3.22439 17.4887 2.07719C15.4764 0.929989 11.3783 4.21873 8.33549 9.42281Z" stroke="#61DAFB"/>
</svg>
