<svg  viewBox="0 0 24 23" fill="none" xmlns="http://www.w3.org/2000/svg">
<path d="M16.6296 16.0062C17.5152 15.9145 18.1872 15.151 18.1566 14.2347C18.1261 13.3185 17.3625 12.5855 16.4463 12.5855H16.3853C15.4384 12.616 14.7055 13.4101 14.736 14.3569C14.7666 14.815 14.9498 15.2121 15.2247 15.4869C14.1863 17.5333 12.5982 19.0298 10.216 20.2821C8.59728 21.1372 6.91756 21.4427 5.23784 21.2289C3.86346 21.0457 2.79453 20.4349 2.12253 19.4269C1.14528 17.9303 1.05368 16.3116 1.87831 14.6929C2.45862 13.5322 3.37475 12.6771 3.95506 12.2495C3.8329 11.8524 3.64962 11.1805 3.55803 10.6919C-0.870441 13.8988 -0.412285 18.2358 0.931527 20.2821C1.93934 21.8092 3.98562 22.756 6.24565 22.756C6.85643 22.756 7.46721 22.6949 8.07809 22.5423C11.9874 21.7787 14.9499 19.4574 16.6296 16.0062ZM22.0048 12.219C19.6837 9.50072 16.2631 8.00419 12.3538 8.00419H11.8652C11.5903 7.45444 11.01 7.08787 10.3687 7.08787H10.3076C9.36087 7.11844 8.62793 7.9125 8.6584 8.85937C8.68896 9.77559 9.45246 10.5086 10.3687 10.5086H10.4297C11.1016 10.4781 11.6819 10.0505 11.9262 9.47016H12.476C14.7972 9.47016 16.9961 10.1421 18.9813 11.4554C20.5083 12.4633 21.6078 13.7767 22.2186 15.3648C22.7378 16.6476 22.7072 17.8998 22.1575 18.9688C21.3024 20.5875 19.867 21.4732 17.9734 21.4732C16.7517 21.4732 15.5912 21.1067 14.9803 20.8318C14.6444 21.1372 14.0336 21.6259 13.606 21.9314C14.9193 22.5422 16.2631 22.8782 17.5458 22.8782C20.4777 22.8782 22.6462 21.2594 23.4708 19.6407C24.3565 17.8692 24.2953 14.815 22.0048 12.219ZM6.48996 16.5253C6.52053 17.4416 7.28403 18.1746 8.20024 18.1746H8.26137C9.20815 18.1441 9.94109 17.3499 9.91053 16.4032C9.88006 15.4868 9.11646 14.7539 8.20024 14.7539H8.13921C8.07809 14.7539 7.9864 14.7539 7.92546 14.7844C6.67325 12.7075 6.15406 10.4475 6.33734 8.00409C6.4594 6.17156 7.07028 4.58334 8.13921 3.27C9.02487 2.13994 10.7352 1.59019 11.8958 1.55972C15.1331 1.49859 16.5073 5.53012 16.599 7.14891C16.9961 7.2405 17.668 7.45434 18.1261 7.60706C17.7596 2.65931 14.7055 0.09375 11.7736 0.09375C9.02487 0.09375 6.48996 2.079 5.48206 5.01103C4.07721 8.92041 4.99343 12.6771 6.70371 15.6397C6.55109 15.8534 6.4594 16.1894 6.48996 16.5254V16.5253Z" fill="#764ABC"/>
</svg>
