<svg  viewBox="0 0 24 19" fill="none" xmlns="http://www.w3.org/2000/svg">
<path d="M20.6531 10.8406C19.8141 10.8454 19.0875 11.0469 18.4781 11.3469C18.2531 10.9016 18.0281 10.5125 17.9907 10.2219C17.9485 9.88442 17.8969 9.67812 17.9485 9.27504C18 8.87187 18.2344 8.3 18.2344 8.25312C18.2296 8.21093 18.1828 8.00468 17.7 8C17.2172 7.99531 16.8 8.09375 16.7531 8.22031C16.7062 8.34687 16.6125 8.6375 16.5516 8.9375C16.4672 9.37812 15.5859 10.9391 15.0844 11.7594C14.9203 11.4406 14.7797 11.1594 14.7515 10.9343C14.7094 10.5969 14.6578 10.3906 14.7094 9.9875C14.7609 9.58432 14.9953 9.0125 14.9953 8.96562C14.9906 8.92344 14.9437 8.71719 14.461 8.7125C13.9781 8.70781 13.561 8.80625 13.5141 8.93281C13.4672 9.05937 13.4157 9.35937 13.3125 9.65C13.2141 9.94062 12.0422 12.5469 11.7375 13.2266C11.5828 13.5734 11.4469 13.85 11.3484 14.0375C11.25 14.225 11.3437 14.0516 11.3344 14.0703C11.25 14.2297 11.2031 14.3187 11.2031 14.3187V14.3235C11.1375 14.4407 11.0672 14.5531 11.0343 14.5531C11.0109 14.5531 10.964 14.2391 11.0437 13.8079C11.2171 12.9031 11.639 11.4922 11.6344 11.4407C11.6344 11.4172 11.714 11.1687 11.3624 11.0422C11.0203 10.9157 10.8984 11.1266 10.8703 11.1266C10.8421 11.1266 10.8187 11.2016 10.8187 11.2016C10.8187 11.2016 11.1984 9.61259 10.0921 9.61259C9.39838 9.61259 8.44213 10.3673 7.96869 11.0563C7.66869 11.2204 7.03119 11.5672 6.35619 11.9376C6.09838 12.0782 5.83119 12.2282 5.57807 12.3642L5.52655 12.3078C4.18593 10.8781 1.70624 9.86562 1.80936 7.94375C1.84686 7.24531 2.09061 5.40312 6.57191 3.17187C10.2422 1.34375 13.1813 1.84531 13.6922 2.96094C14.4187 4.55469 12.1219 7.51719 8.30629 7.94375C6.85316 8.10781 6.08905 7.54531 5.89691 7.33437C5.69535 7.11406 5.66722 7.10468 5.59222 7.14687C5.47035 7.2125 5.54535 7.40937 5.59222 7.52656C5.70472 7.82187 6.17347 8.34687 6.97035 8.60937C7.66874 8.83906 9.37504 8.96562 11.4375 8.16875C13.7485 7.27344 15.5532 4.78906 15.0235 2.7125C14.4844 0.598435 10.9782 -0.0953149 7.6641 1.08125C5.69061 1.78437 3.55311 2.88125 2.01561 4.32031C0.18749 6.02656 -0.103135 7.51718 0.0187397 8.13593C0.445349 10.3437 3.48749 11.7828 4.70624 12.8469C4.6453 12.8796 4.58905 12.9125 4.53749 12.9406C3.92811 13.2406 1.6078 14.4547 1.02655 15.739C0.370302 17.1921 1.12968 18.2375 1.63593 18.3781C3.20155 18.8141 4.80468 18.0312 5.67186 16.7422C6.53432 15.4531 6.43124 13.7797 6.0328 13.0156L6.01869 12.9875L6.49682 12.7062C6.80624 12.5234 7.11093 12.3547 7.37807 12.2093C7.22811 12.6171 7.12025 13.1 7.06405 13.8031C6.99843 14.6281 7.33593 15.6968 7.78124 16.1187C7.97811 16.3015 8.21249 16.3062 8.3578 16.3062C8.87343 16.3062 9.1078 15.8796 9.36561 15.3687C9.68436 14.7453 9.96561 14.0234 9.96561 14.0234C9.96561 14.0234 9.61405 15.9781 10.575 15.9781C10.9266 15.9781 11.2781 15.5234 11.4375 15.289V15.2937C11.4375 15.2937 11.4469 15.2796 11.4656 15.2468C11.4853 15.2177 11.504 15.1881 11.5219 15.1578V15.1484C11.6625 14.9047 11.9766 14.3469 12.4453 13.4234C13.0499 12.2328 13.6312 10.7422 13.6312 10.7422C13.6312 10.7422 13.6875 11.1078 13.8609 11.7078C13.964 12.0641 14.189 12.4531 14.3624 12.8328C14.2218 13.0297 14.1374 13.1422 14.1374 13.1422L14.1421 13.1469C14.0297 13.2969 13.9031 13.4563 13.7719 13.6157C13.2937 14.1875 12.7219 14.8392 12.6469 15.0267C12.5578 15.2469 12.5766 15.411 12.75 15.5423C12.8766 15.636 13.1016 15.6547 13.3406 15.636C13.7719 15.6079 14.0719 15.5001 14.2219 15.4344C14.4562 15.35 14.7234 15.2235 14.9812 15.036C15.45 14.6892 15.7359 14.197 15.7078 13.5407C15.6937 13.1798 15.5766 12.8235 15.4312 12.486C15.4734 12.4251 15.5157 12.3641 15.5578 12.2985C16.2984 11.2157 16.8703 10.0251 16.8703 10.0251C16.8703 10.0251 16.9266 10.3907 17.1 10.9907C17.189 11.2954 17.3672 11.6283 17.5266 11.9564C16.8328 12.5236 16.3969 13.1798 16.2469 13.6111C15.9703 14.408 16.1859 14.7689 16.5937 14.8533C16.7765 14.8908 17.0391 14.8064 17.2359 14.722C17.4796 14.6423 17.7749 14.5063 18.0469 14.3048C18.5156 13.958 18.9656 13.4751 18.9422 12.8236C18.9281 12.5236 18.8484 12.2283 18.7406 11.947C19.3312 11.7033 20.0953 11.5626 21.0656 11.6798C23.1516 11.9236 23.5641 13.2267 23.4844 13.7705C23.4047 14.3142 22.9688 14.6142 22.8234 14.708C22.6781 14.797 22.6312 14.8299 22.6453 14.8955C22.6641 14.9939 22.7297 14.9892 22.8562 14.9705C23.0297 14.9423 23.9531 14.5252 23.9906 13.5221C24.0469 12.2329 22.8234 10.8266 20.6531 10.8406ZM4.56561 16.2641C3.87655 17.0187 2.90624 17.3047 2.49374 17.0609C2.04843 16.8031 2.22182 15.6922 3.0703 14.8906C3.58593 14.4031 4.25624 13.9531 4.69686 13.6766C4.7953 13.6156 4.9453 13.5266 5.12343 13.4187C5.15155 13.4 5.1703 13.3906 5.1703 13.3906C5.20311 13.3719 5.24061 13.3484 5.27811 13.325C5.59218 14.4687 5.29218 15.4719 4.56561 16.2641ZM9.60468 12.8375C9.36561 13.4234 8.85936 14.9281 8.55468 14.8437C8.29213 14.7734 8.1328 13.6344 8.50307 12.5094C8.69057 11.9421 9.08901 11.2672 9.32338 11.0046C9.70311 10.5828 10.1156 10.4421 10.2187 10.6156C10.3406 10.8406 9.75468 12.4719 9.60468 12.8375ZM13.7625 14.825C13.6594 14.8766 13.5656 14.9141 13.5234 14.886C13.4906 14.8672 13.5656 14.7969 13.5656 14.7969C13.5656 14.7969 14.0859 14.2391 14.2921 13.9813C14.4093 13.8313 14.5499 13.6579 14.6999 13.461V13.5172C14.7 14.1922 14.0531 14.6422 13.7625 14.825ZM16.9687 14.0937C16.8937 14.0375 16.9031 13.8641 17.1562 13.3203C17.2547 13.1047 17.4796 12.7437 17.8687 12.4016C17.9156 12.5422 17.9437 12.6781 17.939 12.8047C17.9344 13.6484 17.3344 13.9625 16.9687 14.0937Z" fill="#CF649A"/>
</svg>
